<svg width="315" height="24" viewBox="0 0 315 24" fill="none" xmlns="http://www.w3.org/2000/svg">
<path d="M28.325 22.592C28.3703 22.592 28.393 22.66 28.393 22.796C28.393 22.932 28.3703 23 28.325 23C27.5542 23 26.9422 22.9887 26.4888 22.966L23.9725 22.932L21.4223 22.966C20.9915 22.9887 20.4021 23 19.6541 23C19.5861 23 19.5521 22.932 19.5521 22.796C19.5521 22.66 19.5861 22.592 19.6541 22.592C20.6062 22.592 21.2522 22.4786 21.5923 22.2519C21.9323 22.0252 22.1023 21.5492 22.1023 20.8238L22.0683 20.2457L21.3542 6.33825L14.3495 22.762C14.3042 22.8527 14.2135 22.898 14.0775 22.898C13.9415 22.898 13.8508 22.8527 13.8055 22.762L5.20255 6.40625L4.93052 18.6815C4.90785 19.9057 5.14588 20.8691 5.64459 21.5718C6.16598 22.2519 6.89139 22.592 7.82082 22.592C7.88883 22.592 7.92283 22.66 7.92283 22.796C7.92283 22.932 7.88883 23 7.82082 23C7.20876 23 6.73271 22.9887 6.39267 22.966L4.52248 22.932L2.38025 22.966C2.01755 22.9887 1.53016 23 0.918097 23C0.850089 23 0.816086 22.932 0.816086 22.796C0.816086 22.66 0.850089 22.592 0.918097 22.592C1.84753 22.592 2.58427 22.2406 3.12833 21.5378C3.67239 20.8351 3.95575 19.883 3.97842 18.6815L4.28445 4.60406L4.25045 4.57006C3.79707 3.7313 3.32102 3.11924 2.8223 2.73387C2.34625 2.34849 1.79086 2.15581 1.15612 2.15581C1.08811 2.15581 1.05411 2.0878 1.05411 1.95178C1.05411 1.81577 1.08811 1.74776 1.15612 1.74776L2.75429 1.78177C3.07166 1.80444 3.4797 1.81577 3.97842 1.81577L5.78061 1.78177C5.98463 1.7591 6.24532 1.74776 6.56269 1.74776C6.85739 1.74776 7.08408 1.84977 7.24276 2.05379C7.40145 2.25782 7.69614 2.7452 8.12686 3.51595L15.5396 17.4234L22.0003 2.59785C22.1363 2.28049 22.2723 2.06513 22.4084 1.95178C22.567 1.81577 22.7711 1.74776 23.0204 1.74776C23.2244 1.74776 23.4511 1.7591 23.7005 1.78177C23.9725 1.80444 24.2786 1.81577 24.6186 1.81577L26.6248 1.78177C26.9422 1.7591 27.3956 1.74776 27.9849 1.74776C28.053 1.74776 28.087 1.81577 28.087 1.95178C28.087 2.0878 28.053 2.15581 27.9849 2.15581C26.9195 2.15581 26.1488 2.37116 25.6727 2.80187C25.1967 3.23258 24.9813 3.90132 25.0266 4.80808L25.8427 20.2457C25.8881 20.9485 25.9674 21.4585 26.0807 21.7759C26.2168 22.0932 26.4435 22.3086 26.7608 22.4219C27.1009 22.5353 27.6222 22.592 28.325 22.592ZM53.536 22.592C53.6493 22.592 53.706 22.66 53.706 22.796C53.706 22.932 53.6493 23 53.536 23C53.0826 23 52.3799 22.9773 51.4278 22.932C50.4303 22.8867 49.7162 22.864 49.2855 22.864C48.7188 22.864 48.0274 22.8867 47.2113 22.932C46.4406 22.9773 45.8285 23 45.3751 23C45.2844 23 45.2391 22.932 45.2391 22.796C45.2391 22.66 45.2844 22.592 45.3751 22.592C45.9645 22.592 46.3839 22.5353 46.6333 22.4219C46.9053 22.2859 47.0413 22.0592 47.0413 21.7419C47.0413 21.3565 46.8146 20.7104 46.3612 19.8037L44.049 15.2132H35.6841L34.358 18.1715C34.0633 18.8289 33.9159 19.441 33.9159 20.0077C33.9159 20.8238 34.1993 21.4585 34.766 21.9119C35.3554 22.3653 36.1375 22.592 37.1123 22.592C37.2256 22.592 37.2823 22.66 37.2823 22.796C37.2823 22.932 37.2256 23 37.1123 23C36.7042 23 36.1148 22.9773 35.3441 22.932C34.4826 22.8867 33.7346 22.864 33.0998 22.864C32.4878 22.864 31.751 22.8867 30.8896 22.932C30.1188 22.9773 29.4954 23 29.0194 23C28.9287 23 28.8834 22.932 28.8834 22.796C28.8834 22.66 28.9287 22.592 29.0194 22.592C29.6541 22.592 30.1869 22.4673 30.6176 22.2179C31.0483 21.9459 31.479 21.4812 31.9097 20.8238C32.3404 20.1437 32.8505 19.1463 33.4399 17.8315L40.8186 1.61175C40.864 1.54374 40.966 1.50974 41.1247 1.50974C41.306 1.50974 41.408 1.54374 41.4307 1.61175L49.9316 18.3415C50.725 19.951 51.3824 21.0618 51.9038 21.6739C52.4252 22.2859 52.9693 22.592 53.536 22.592ZM36.1261 14.2611H43.5389L39.6285 6.50826L36.1261 14.2611ZM77.5704 22.592C77.6157 22.592 77.6384 22.66 77.6384 22.796C77.6384 22.932 77.6157 23 77.5704 23H71.5178C71.019 23 70.0896 22.1046 68.7295 20.3137C67.3693 18.5002 65.7258 15.9726 63.7989 12.7309C63.6176 12.7536 63.3569 12.7649 63.0169 12.7649C62.1328 12.7649 61.5094 12.7536 61.1467 12.7309V20.2457C61.1467 20.9485 61.2033 21.4585 61.3167 21.7759C61.43 22.0932 61.6454 22.3086 61.9628 22.4219C62.3028 22.5353 62.8355 22.592 63.5609 22.592C63.6063 22.592 63.6289 22.66 63.6289 22.796C63.6289 22.932 63.6063 23 63.5609 23C62.8128 23 62.2235 22.9887 61.7927 22.966L59.2085 22.932L56.7262 22.966C56.2728 22.9887 55.6608 23 54.89 23C54.822 23 54.788 22.932 54.788 22.796C54.788 22.66 54.822 22.592 54.89 22.592C55.6154 22.592 56.1368 22.5353 56.4542 22.4219C56.7942 22.3086 57.0209 22.0932 57.1342 21.7759C57.2703 21.4358 57.3383 20.9258 57.3383 20.2457V4.50205C57.3383 3.82198 57.2816 3.32326 57.1683 3.0059C57.0549 2.68853 56.8282 2.47317 56.4882 2.35983C56.1481 2.22381 55.6268 2.15581 54.924 2.15581C54.8787 2.15581 54.856 2.0878 54.856 1.95178C54.856 1.81577 54.8787 1.74776 54.924 1.74776L56.7262 1.78177C57.769 1.8271 58.5964 1.84977 59.2085 1.84977C59.9792 1.84977 60.784 1.81577 61.6227 1.74776C61.9174 1.72509 62.2801 1.70242 62.7108 1.67976C63.1642 1.65709 63.6629 1.64575 64.207 1.64575C66.2699 1.64575 67.868 2.03113 69.0015 2.80187C70.135 3.54995 70.7017 4.60406 70.7017 5.96421C70.7017 7.211 70.3616 8.34446 69.6816 9.36456C69.0015 10.362 68.0947 11.1668 66.9613 11.7788C68.7748 14.4991 70.2936 16.63 71.5178 18.1715C72.7419 19.713 73.83 20.8351 74.7821 21.5378C75.7342 22.2406 76.6636 22.592 77.5704 22.592ZM61.1467 11.7788C61.6907 11.8695 62.3481 11.9148 63.1189 11.9148C64.4337 11.9148 65.3744 11.5521 65.9412 10.8267C66.5306 10.0786 66.8253 8.88851 66.8253 7.25634C66.8253 5.39748 66.5532 4.11668 66.0092 3.41394C65.4651 2.7112 64.683 2.35983 63.6629 2.35983C62.7562 2.35983 62.1101 2.52984 61.7247 2.86988C61.3394 3.20992 61.1467 3.77664 61.1467 4.57006V11.7788ZM84.9574 20.2457C84.9574 20.9485 85.0141 21.4585 85.1274 21.7759C85.2408 22.0932 85.4561 22.3086 85.7735 22.4219C86.1135 22.5353 86.6463 22.592 87.3717 22.592C87.4397 22.592 87.4737 22.66 87.4737 22.796C87.4737 22.932 87.4397 23 87.3717 23C86.6236 23 86.0342 22.9887 85.6035 22.966L83.0192 22.932L80.5029 22.966C80.0496 22.9887 79.4375 23 78.6668 23C78.6214 23 78.5987 22.932 78.5987 22.796C78.5987 22.66 78.6214 22.592 78.6668 22.592C79.3922 22.592 79.9249 22.5353 80.2649 22.4219C80.605 22.3086 80.8316 22.0932 80.945 21.7759C81.081 21.4358 81.149 20.9258 81.149 20.2457V4.50205C81.149 3.82198 81.081 3.32326 80.945 3.0059C80.8316 2.68853 80.605 2.47317 80.2649 2.35983C79.9249 2.22381 79.3922 2.15581 78.6668 2.15581C78.6214 2.15581 78.5987 2.0878 78.5987 1.95178C78.5987 1.81577 78.6214 1.74776 78.6668 1.74776L80.5029 1.78177C81.5457 1.8271 82.3845 1.84977 83.0192 1.84977C83.722 1.84977 84.5947 1.8271 85.6375 1.78177L87.3717 1.74776C87.4397 1.74776 87.4737 1.81577 87.4737 1.95178C87.4737 2.0878 87.4397 2.15581 87.3717 2.15581C86.6689 2.15581 86.1475 2.22381 85.8075 2.35983C85.4675 2.49584 85.2408 2.73387 85.1274 3.0739C85.0141 3.39127 84.9574 3.88999 84.9574 4.57006V20.2457ZM105.727 17.5934C105.727 17.5481 105.772 17.5254 105.863 17.5254C105.931 17.5254 105.987 17.5481 106.033 17.5934C106.101 17.6161 106.135 17.6388 106.135 17.6614C105.908 19.4296 105.795 21.0391 105.795 22.4899C105.795 22.6713 105.761 22.8073 105.693 22.898C105.625 22.966 105.489 23 105.285 23H90.2551C90.1871 23 90.1531 22.932 90.1531 22.796C90.1531 22.66 90.1871 22.592 90.2551 22.592C90.9805 22.592 91.5019 22.5353 91.8192 22.4219C92.1593 22.3086 92.386 22.0932 92.4993 21.7759C92.6126 21.4358 92.6693 20.9258 92.6693 20.2457V4.50205C92.6693 3.82198 92.6126 3.32326 92.4993 3.0059C92.386 2.68853 92.1593 2.47317 91.8192 2.35983C91.4792 2.22381 90.9578 2.15581 90.2551 2.15581C90.1871 2.15581 90.1531 2.0878 90.1531 1.95178C90.1531 1.81577 90.1871 1.74776 90.2551 1.74776H104.673C104.899 1.74776 105.013 1.84977 105.013 2.05379L105.081 6.57627C105.081 6.62161 105.013 6.65561 104.877 6.67828C104.763 6.70095 104.695 6.67828 104.673 6.61027C104.31 5.29547 103.698 4.3207 102.836 3.68597C101.975 3.05123 100.842 2.73387 99.436 2.73387H98.4159C97.7359 2.73387 97.2371 2.88122 96.9198 3.17591C96.6024 3.47061 96.4437 3.92399 96.4437 4.53606V11.4728H99.266C100.581 11.4728 101.59 11.2461 102.292 10.7927C102.995 10.3393 103.346 9.7046 103.346 8.88851C103.346 8.82051 103.403 8.7865 103.516 8.7865C103.652 8.7865 103.72 8.82051 103.72 8.88851L103.686 11.9488L103.72 13.581C103.766 14.3518 103.788 14.9638 103.788 15.4172C103.788 15.4625 103.72 15.4852 103.584 15.4852C103.448 15.4852 103.38 15.4625 103.38 15.4172C103.38 14.4878 103.018 13.7624 102.292 13.241C101.59 12.6969 100.569 12.4249 99.232 12.4249H96.4437V20.1097C96.4437 20.7671 96.5684 21.2545 96.8178 21.5718C97.0671 21.8892 97.4638 22.0479 98.0079 22.0479H99.13C100.898 22.0479 102.315 21.6852 103.38 20.9598C104.446 20.2344 105.228 19.1123 105.727 17.5934ZM145.367 0.897673C145.389 0.806997 145.457 0.761658 145.571 0.761658C145.707 0.761658 145.775 0.806997 145.775 0.897673C145.707 1.57775 145.639 2.66586 145.571 4.16202C145.503 5.65817 145.469 6.85963 145.469 7.7664C145.469 7.8344 145.412 7.86841 145.299 7.86841C145.185 7.86841 145.117 7.8344 145.095 7.7664C144.664 5.97554 144.006 4.66074 143.122 3.82198C142.261 2.96056 141.128 2.52984 139.722 2.52984C139.042 2.52984 138.6 2.65452 138.396 2.90388C138.192 3.15324 138.09 3.70864 138.09 4.57006V20.2457C138.09 20.9485 138.147 21.4585 138.26 21.7759C138.396 22.0932 138.657 22.3086 139.042 22.4219C139.427 22.5353 140.051 22.592 140.912 22.592C140.957 22.592 140.98 22.66 140.98 22.796C140.98 22.932 140.957 23 140.912 23C140.073 23 139.427 22.9887 138.974 22.966L136.152 22.932L133.397 22.966C132.921 22.9887 132.253 23 131.391 23C131.346 23 131.323 22.932 131.323 22.796C131.323 22.66 131.346 22.592 131.391 22.592C132.23 22.592 132.842 22.5353 133.227 22.4219C133.635 22.3086 133.907 22.0932 134.043 21.7759C134.202 21.4358 134.281 20.9258 134.281 20.2457V4.50205C134.281 3.68597 134.179 3.15324 133.975 2.90388C133.771 2.65452 133.352 2.52984 132.717 2.52984C131.584 2.52984 130.666 2.68853 129.963 3.0059C129.283 3.32326 128.75 3.86732 128.365 4.63807C127.979 5.38615 127.696 6.42892 127.515 7.7664C127.515 7.8344 127.447 7.86841 127.311 7.86841C127.175 7.86841 127.107 7.8344 127.107 7.7664C126.993 6.42892 126.755 5.38615 126.393 4.63807C126.053 3.86732 125.531 3.32326 124.828 3.0059C124.126 2.68853 123.174 2.52984 121.972 2.52984C121.451 2.52984 121.088 2.67719 120.884 2.97189C120.68 3.26659 120.578 3.79931 120.578 4.57006V20.2457C120.578 20.9258 120.635 21.4358 120.748 21.7759C120.861 22.0932 121.088 22.3086 121.428 22.4219C121.768 22.5353 122.301 22.592 123.026 22.592C123.072 22.592 123.094 22.66 123.094 22.796C123.094 22.932 123.072 23 123.026 23C122.278 23 121.689 22.9887 121.258 22.966L118.64 22.932L115.886 22.966C115.409 22.9887 114.752 23 113.913 23C113.845 23 113.811 22.932 113.811 22.796C113.811 22.66 113.845 22.592 113.913 22.592C114.729 22.592 115.33 22.5353 115.716 22.4219C116.124 22.3086 116.396 22.0932 116.532 21.7759C116.69 21.4358 116.77 20.9258 116.77 20.2457V4.50205C116.77 3.75397 116.645 3.24392 116.396 2.97189C116.169 2.67719 115.761 2.52984 115.171 2.52984C113.857 2.52984 112.723 2.96056 111.771 3.82198C110.842 4.66074 110.037 5.98688 109.357 7.8004C109.334 7.86841 109.266 7.90241 109.153 7.90241C109.039 7.87974 108.983 7.8344 108.983 7.7664C109.096 7.04099 109.221 5.9302 109.357 4.43405C109.516 2.91522 109.595 1.77043 109.595 0.999684C109.595 0.886339 109.663 0.829667 109.799 0.829667C109.935 0.829667 110.003 0.886339 110.003 0.999684C110.003 1.4984 110.604 1.74776 111.805 1.74776C113.732 1.81577 116.01 1.84977 118.64 1.84977C119.909 1.84977 121.247 1.8271 122.652 1.78177L124.794 1.74776C125.747 1.74776 126.381 1.73643 126.699 1.71376C127.016 1.69109 127.209 1.62308 127.277 1.50974C127.367 1.39639 127.435 1.18104 127.481 0.86367C127.481 0.772993 127.537 0.727655 127.651 0.727655C127.787 0.727655 127.855 0.772993 127.855 0.86367C127.832 1.18104 127.843 1.39639 127.889 1.50974C127.934 1.60041 128.059 1.65709 128.263 1.67976C128.49 1.70242 128.966 1.72509 129.691 1.74776C131.527 1.81577 133.681 1.84977 136.152 1.84977C137.489 1.84977 138.906 1.8271 140.402 1.78177L142.714 1.74776C143.553 1.74776 144.176 1.69109 144.585 1.57774C144.993 1.4644 145.253 1.23771 145.367 0.897673ZM169.029 22.592C169.142 22.592 169.199 22.66 169.199 22.796C169.199 22.932 169.142 23 169.029 23C168.575 23 167.872 22.9773 166.92 22.932C165.923 22.8867 165.209 22.864 164.778 22.864C164.211 22.864 163.52 22.8867 162.704 22.932C161.933 22.9773 161.321 23 160.868 23C160.777 23 160.732 22.932 160.732 22.796C160.732 22.66 160.777 22.592 160.868 22.592C161.457 22.592 161.877 22.5353 162.126 22.4219C162.398 22.2859 162.534 22.0592 162.534 21.7419C162.534 21.3565 162.307 20.7104 161.854 19.8037L159.542 15.2132H151.177L149.851 18.1715C149.556 18.8289 149.409 19.441 149.409 20.0077C149.409 20.8238 149.692 21.4585 150.259 21.9119C150.848 22.3653 151.63 22.592 152.605 22.592C152.718 22.592 152.775 22.66 152.775 22.796C152.775 22.932 152.718 23 152.605 23C152.197 23 151.607 22.9773 150.837 22.932C149.975 22.8867 149.227 22.864 148.592 22.864C147.98 22.864 147.244 22.8867 146.382 22.932C145.611 22.9773 144.988 23 144.512 23C144.421 23 144.376 22.932 144.376 22.796C144.376 22.66 144.421 22.592 144.512 22.592C145.147 22.592 145.679 22.4673 146.11 22.2179C146.541 21.9459 146.972 21.4812 147.402 20.8238C147.833 20.1437 148.343 19.1463 148.932 17.8315L156.311 1.61175C156.357 1.54374 156.459 1.50974 156.617 1.50974C156.799 1.50974 156.901 1.54374 156.923 1.61175L165.424 18.3415C166.218 19.951 166.875 21.0618 167.396 21.6739C167.918 22.2859 168.462 22.592 169.029 22.592ZM151.619 14.2611H159.032L155.121 6.50826L151.619 14.2611ZM184.201 20.1097C184.201 20.6991 184.246 21.1298 184.337 21.4018C184.428 21.6512 184.598 21.8212 184.847 21.9119C185.119 22.0026 185.55 22.0479 186.139 22.0479H187.295C189.063 22.0479 190.594 21.5832 191.886 20.6538C193.178 19.7017 194.039 18.4209 194.47 16.8113C194.47 16.766 194.515 16.7433 194.606 16.7433C194.651 16.7433 194.697 16.766 194.742 16.8113C194.81 16.834 194.844 16.8567 194.844 16.8794C194.64 19.1236 194.538 20.9938 194.538 22.4899C194.538 22.6713 194.493 22.8073 194.402 22.898C194.334 22.966 194.209 23 194.028 23H177.978C177.933 23 177.91 22.932 177.91 22.796C177.91 22.66 177.933 22.592 177.978 22.592C178.704 22.592 179.225 22.5353 179.542 22.4219C179.882 22.3086 180.109 22.0932 180.222 21.7759C180.358 21.4358 180.426 20.9258 180.426 20.2457V4.50205C180.426 3.82198 180.358 3.32326 180.222 3.0059C180.109 2.68853 179.882 2.47317 179.542 2.35983C179.202 2.22381 178.681 2.15581 177.978 2.15581C177.933 2.15581 177.91 2.0878 177.91 1.95178C177.91 1.81577 177.933 1.74776 177.978 1.74776L179.712 1.78177C180.755 1.8271 181.617 1.84977 182.297 1.84977C182.977 1.84977 183.838 1.8271 184.881 1.78177L186.615 1.74776C186.683 1.74776 186.717 1.81577 186.717 1.95178C186.717 2.0878 186.683 2.15581 186.615 2.15581C185.912 2.15581 185.391 2.22381 185.051 2.35983C184.711 2.47317 184.484 2.69986 184.371 3.0399C184.258 3.35727 184.201 3.85598 184.201 4.53606V20.1097ZM219.868 22.592C219.981 22.592 220.038 22.66 220.038 22.796C220.038 22.932 219.981 23 219.868 23C219.415 23 218.712 22.9773 217.76 22.932C216.762 22.8867 216.048 22.864 215.617 22.864C215.051 22.864 214.359 22.8867 213.543 22.932C212.773 22.9773 212.16 23 211.707 23C211.616 23 211.571 22.932 211.571 22.796C211.571 22.66 211.616 22.592 211.707 22.592C212.296 22.592 212.716 22.5353 212.965 22.4219C213.237 22.2859 213.373 22.0592 213.373 21.7419C213.373 21.3565 213.147 20.7104 212.693 19.8037L210.381 15.2132H202.016L200.69 18.1715C200.395 18.8289 200.248 19.441 200.248 20.0077C200.248 20.8238 200.531 21.4585 201.098 21.9119C201.687 22.3653 202.469 22.592 203.444 22.592C203.558 22.592 203.614 22.66 203.614 22.796C203.614 22.932 203.558 23 203.444 23C203.036 23 202.447 22.9773 201.676 22.932C200.815 22.8867 200.067 22.864 199.432 22.864C198.82 22.864 198.083 22.8867 197.222 22.932C196.451 22.9773 195.827 23 195.351 23C195.261 23 195.215 22.932 195.215 22.796C195.215 22.66 195.261 22.592 195.351 22.592C195.986 22.592 196.519 22.4673 196.95 22.2179C197.38 21.9459 197.811 21.4812 198.242 20.8238C198.672 20.1437 199.182 19.1463 199.772 17.8315L207.151 1.61175C207.196 1.54374 207.298 1.50974 207.457 1.50974C207.638 1.50974 207.74 1.54374 207.763 1.61175L216.264 18.3415C217.057 19.951 217.714 21.0618 218.236 21.6739C218.757 22.2859 219.301 22.592 219.868 22.592ZM202.458 14.2611H209.871L205.96 6.50826L202.458 14.2611ZM233.803 2.59785C233.871 2.48451 233.894 2.4165 233.871 2.39383C233.871 2.34849 233.792 2.32582 233.633 2.32582C231.049 2.32582 229.077 2.42783 227.717 2.63186C226.379 2.81321 225.28 3.22125 224.418 3.85598C223.557 4.46805 222.809 5.43148 222.174 6.74629C222.151 6.76896 222.106 6.78029 222.038 6.78029C221.834 6.78029 221.743 6.73495 221.766 6.64428L223.126 0.727655C223.126 0.704986 223.172 0.693652 223.262 0.693652C223.489 0.693652 223.58 0.727655 223.534 0.795662C223.512 0.863669 223.5 0.954346 223.5 1.06769C223.5 1.33972 223.625 1.52107 223.874 1.61175C224.146 1.70243 224.679 1.74776 225.472 1.74776H237.884C237.997 1.74776 238.076 1.80444 238.122 1.91778C238.19 2.03113 238.19 2.1218 238.122 2.18981L226.357 22.0819C226.266 22.1952 226.232 22.2746 226.254 22.3199C226.277 22.3426 226.357 22.3539 226.493 22.3539H233.361C234.177 22.3539 234.971 22.1499 235.741 21.7419C236.512 21.3112 237.17 20.7444 237.714 20.0417C238.258 19.3389 238.598 18.5909 238.734 17.7975C238.756 17.7294 238.824 17.6954 238.938 17.6954C239.051 17.6954 239.108 17.7294 239.108 17.7975L238.632 22.728C238.632 22.796 238.598 22.8753 238.53 22.966C238.484 23.034 238.416 23.068 238.326 23.068C234.948 23.0227 229.519 23 222.038 23C221.947 23 221.879 22.9547 221.834 22.864C221.789 22.7506 221.8 22.6486 221.868 22.558L233.803 2.59785ZM264.796 22.592C264.91 22.592 264.967 22.66 264.967 22.796C264.967 22.932 264.91 23 264.796 23C264.343 23 263.64 22.9773 262.688 22.932C261.691 22.8867 260.977 22.864 260.546 22.864C259.979 22.864 259.288 22.8867 258.472 22.932C257.701 22.9773 257.089 23 256.636 23C256.545 23 256.5 22.932 256.5 22.796C256.5 22.66 256.545 22.592 256.636 22.592C257.225 22.592 257.644 22.5353 257.894 22.4219C258.166 22.2859 258.302 22.0592 258.302 21.7419C258.302 21.3565 258.075 20.7104 257.622 19.8037L255.309 15.2132H246.945L245.618 18.1715C245.324 18.8289 245.176 19.441 245.176 20.0077C245.176 20.8238 245.46 21.4585 246.027 21.9119C246.616 22.3653 247.398 22.592 248.373 22.592C248.486 22.592 248.543 22.66 248.543 22.796C248.543 22.932 248.486 23 248.373 23C247.965 23 247.375 22.9773 246.605 22.932C245.743 22.8867 244.995 22.864 244.36 22.864C243.748 22.864 243.012 22.8867 242.15 22.932C241.379 22.9773 240.756 23 240.28 23C240.189 23 240.144 22.932 240.144 22.796C240.144 22.66 240.189 22.592 240.28 22.592C240.915 22.592 241.447 22.4673 241.878 22.2179C242.309 21.9459 242.74 21.4812 243.17 20.8238C243.601 20.1437 244.111 19.1463 244.7 17.8315L252.079 1.61175C252.124 1.54374 252.227 1.50974 252.385 1.50974C252.567 1.50974 252.669 1.54374 252.691 1.61175L261.192 18.3415C261.986 19.951 262.643 21.0618 263.164 21.6739C263.686 22.2859 264.23 22.592 264.796 22.592ZM247.387 14.2611H254.799L250.889 6.50826L247.387 14.2611ZM289.341 1.74776C289.386 1.74776 289.409 1.81577 289.409 1.95178C289.409 2.0878 289.386 2.15581 289.341 2.15581C288.434 2.15581 287.72 2.51851 287.199 3.24392C286.677 3.94666 286.417 4.89876 286.417 6.10022V23.5101C286.417 23.5781 286.36 23.6234 286.247 23.6461C286.156 23.6687 286.088 23.6574 286.043 23.6121L270.095 5.45415V18.6815C270.095 19.883 270.344 20.8351 270.843 21.5378C271.342 22.2406 272.033 22.592 272.917 22.592C272.963 22.592 272.985 22.66 272.985 22.796C272.985 22.932 272.963 23 272.917 23C272.283 23 271.795 22.9887 271.455 22.966L269.619 22.932L267.511 22.966C267.125 22.9887 266.57 23 265.844 23C265.776 23 265.742 22.932 265.742 22.796C265.742 22.66 265.776 22.592 265.844 22.592C266.842 22.592 267.624 22.2406 268.191 21.5378C268.78 20.8351 269.075 19.883 269.075 18.6815V4.29803C268.327 3.48195 267.681 2.92655 267.137 2.63186C266.615 2.31449 266.071 2.15581 265.504 2.15581C265.459 2.15581 265.436 2.0878 265.436 1.95178C265.436 1.81577 265.459 1.74776 265.504 1.74776L266.933 1.78177C267.227 1.80444 267.658 1.81577 268.225 1.81577L270.809 1.78177C271.126 1.7591 271.512 1.74776 271.965 1.74776C272.146 1.74776 272.283 1.7931 272.373 1.88378C272.464 1.97445 272.623 2.16714 272.849 2.46184C273.235 2.98323 273.507 3.3346 273.665 3.51595L285.431 17.0834V6.10022C285.431 4.87609 285.181 3.91266 284.682 3.20992C284.184 2.50718 283.492 2.15581 282.608 2.15581C282.563 2.15581 282.54 2.0878 282.54 1.95178C282.54 1.81577 282.563 1.74776 282.608 1.74776L284.07 1.78177C284.796 1.8271 285.408 1.84977 285.907 1.84977C286.36 1.84977 286.995 1.8271 287.811 1.78177L289.341 1.74776ZM314.142 22.592C314.255 22.592 314.312 22.66 314.312 22.796C314.312 22.932 314.255 23 314.142 23C313.688 23 312.985 22.9773 312.033 22.932C311.036 22.8867 310.322 22.864 309.891 22.864C309.324 22.864 308.633 22.8867 307.817 22.932C307.046 22.9773 306.434 23 305.981 23C305.89 23 305.845 22.932 305.845 22.796C305.845 22.66 305.89 22.592 305.981 22.592C306.57 22.592 306.989 22.5353 307.239 22.4219C307.511 22.2859 307.647 22.0592 307.647 21.7419C307.647 21.3565 307.42 20.7104 306.967 19.8037L304.655 15.2132H296.29L294.964 18.1715C294.669 18.8289 294.521 19.441 294.521 20.0077C294.521 20.8238 294.805 21.4585 295.372 21.9119C295.961 22.3653 296.743 22.592 297.718 22.592C297.831 22.592 297.888 22.66 297.888 22.796C297.888 22.932 297.831 23 297.718 23C297.31 23 296.72 22.9773 295.95 22.932C295.088 22.8867 294.34 22.864 293.705 22.864C293.093 22.864 292.357 22.8867 291.495 22.932C290.724 22.9773 290.101 23 289.625 23C289.534 23 289.489 22.932 289.489 22.796C289.489 22.66 289.534 22.592 289.625 22.592C290.26 22.592 290.792 22.4673 291.223 22.2179C291.654 21.9459 292.085 21.4812 292.515 20.8238C292.946 20.1437 293.456 19.1463 294.045 17.8315L301.424 1.61175C301.47 1.54374 301.572 1.50974 301.73 1.50974C301.912 1.50974 302.014 1.54374 302.036 1.61175L310.537 18.3415C311.331 19.951 311.988 21.0618 312.509 21.6739C313.031 22.2859 313.575 22.592 314.142 22.592ZM296.732 14.2611H304.144L300.234 6.50826L296.732 14.2611Z" fill="#121849"/>
</svg>
